# xmcd CD database file
#
# Track frame offsets:
#	150
#	14827
#	30385
#	46462
#	59057
#	73815
#	93130
#	109630
#	119930
#	134237
#
# Disc length: 1911 seconds
#
# Revision: 2
# Processed by: cddbd v1.4b41PL3 Copyright (c) Steve Scherf et al.
# Submitted via: CDex 1.40Beta4
#
DISCID=9c07750a
DTITLE=Nitty Gritty Dirt Band - Best Of Nitty Gritty Dirt Band
DYEAR=1900
DGENRE=Blues
TTITLE0=dance Little Jean
TTITLE1=Shot Full Of Love
TTITLE2=In For THe Night
TTITLE3=High School Yearbook
TTITLE4=For A Little While
TTITLE5=In Her Eyes
TTITLE6=Jealousy
TTITLE7=Melissa
TTITLE8=These Days
TTITLE9=Livin' Without You
EXTD=ID3G:   0
EXTT0=
EXTT1=
EXTT2=
EXTT3=
EXTT4=
EXTT5=
EXTT6=
EXTT7=
EXTT8=
EXTT9=
PLAYORDER=
